<svg width="30" height="30" viewBox="0 0 40 59" fill="none" xmlns="http://www.w3.org/2000/svg">
<path d="M17.8324 57.8096C2.79182 33.5368 0 31.0456 0 22.125C0 9.90566 8.89831 0 19.875 0C30.8517 0 39.75 9.90566 39.75 22.125C39.75 31.0456 36.9582 33.5368 21.9176 57.8096C20.9305 59.3969 18.8193 59.3967 17.8324 57.8096ZM19.875 31.3437C24.4486 31.3437 28.1562 27.2164 28.1562 22.125C28.1562 17.0336 24.4486 12.9062 19.875 12.9062C15.3014 12.9062 11.5938 17.0336 11.5938 22.125C11.5938 27.2164 15.3014 31.3437 19.875 31.3437Z" fill="black"/>
</svg>
