<svg width="30" height="30" viewBox="0 0 44 41" fill="none" xmlns="http://www.w3.org/2000/svg">
<path d="M43.1664 13.456C43.5016 13.127 44 13.4348 44 13.9548V35.6562C44 38.4684 42.1523 40.75 39.875 40.75H4.125C1.84766 40.75 0 38.4684 0 35.6562V13.9654C0 13.4348 0.489844 13.1376 0.833594 13.4666C2.75859 15.3131 5.31094 17.6583 14.0766 25.5218C15.8898 27.1561 18.9492 30.5943 22 30.5731C25.068 30.6049 28.1875 27.0924 29.932 25.5218C38.6977 17.6583 41.2414 15.3025 43.1664 13.456ZM22 27.1667C23.9937 27.2091 26.8641 24.068 28.3078 22.7733C39.7117 12.554 40.5797 11.6626 43.2094 9.11569C43.7078 8.63815 44 7.89531 44 7.11003V5.09375C44 2.28158 42.1523 0 39.875 0H4.125C1.84766 0 0 2.28158 0 5.09375V7.11003C0 7.89531 0.292187 8.62754 0.790625 9.11569C3.42031 11.652 4.28828 12.554 15.6922 22.7733C17.1359 24.068 20.0063 27.2091 22 27.1667Z" fill="black"/>
</svg>
