<svg width="30" height="30" viewBox="0 0 45 60" fill="none" xmlns="http://www.w3.org/2000/svg">
<path d="M43.7167 42.3981L33.8728 36.773C33.4522 36.5341 32.9849 36.4837 32.541 36.6296C32.0972 36.7754 31.7009 37.1095 31.4118 37.5816L27.0523 44.6833C20.2106 40.3822 14.7045 33.0408 11.4787 23.9185L16.805 18.1059C17.1598 17.7211 17.4109 17.1927 17.5203 16.6007C17.6298 16.0086 17.5915 15.3851 17.4114 14.8246L13.1926 1.69936C12.995 1.09514 12.6454 0.601814 12.2041 0.304449C11.7629 0.00708429 11.2577 -0.0756816 10.7756 0.070423L1.63479 2.88297C1.16999 3.02608 0.755297 3.37503 0.458388 3.87285C0.16148 4.37068 -0.000107071 4.98799 5.32293e-08 5.62404C5.32293e-08 35.6832 18.2728 60 40.782 60C41.2591 60.0004 41.7223 59.7851 42.0959 59.3892C42.4694 58.9933 42.7313 58.4402 42.8386 57.8203L44.948 45.6326C45.0569 44.9866 44.9935 44.3103 44.7688 43.72C44.544 43.1296 44.172 42.6622 43.7167 42.3981Z" fill="black"/>
</svg>
